<svg width="643" height="228" viewBox="0 0 643 228" fill="none" xmlns="http://www.w3.org/2000/svg">
<path d="M72.4055 227.395L69.3326 190.884H43.4003L39.6451 227.395H0.0617676L33.1607 0.129089H83.6659L116.426 227.395H72.4055ZM58.0722 67.0093L48.1764 155.395H65.5826L58.0722 67.0093Z" fill="#CC3F0C"/>
<path d="M116.766 227.395V0.129089H160.443V188.494H206.511V227.395H116.766Z" fill="#CC3F0C"/>
<path d="M208.56 227.395V0.129089H252.237V188.494H298.305V227.395H208.56Z" fill="#CC3F0C"/>
<path d="M117 78H525.484V150.083H117V78Z" fill="#6E8387"/>
<path d="M165.488 120.264C165.488 123.186 164.421 125.462 162.29 127.092C160.16 128.717 157.191 129.529 153.395 129.529H140.046V96.6388H151.999C159.712 96.6388 163.572 99.3002 163.572 104.623C163.572 106.571 163.03 108.201 161.941 109.524C160.853 110.847 159.311 111.738 157.316 112.186C159.931 112.498 161.947 113.373 163.363 114.811C164.78 116.253 165.488 118.071 165.488 120.264ZM159.093 105.16C159.093 103.389 158.483 102.118 157.27 101.358C156.056 100.592 154.301 100.212 151.999 100.212H144.504V110.623H151.999C154.379 110.623 156.155 110.175 157.332 109.279C158.504 108.384 159.093 107.014 159.093 105.16ZM160.983 119.915C160.983 116.04 158.259 114.102 152.811 114.102H144.504V125.956H153.165C155.884 125.956 157.869 125.451 159.113 124.441C160.358 123.43 160.983 121.92 160.983 119.915Z" fill="white"/>
<path d="M178.137 129.529V96.6388H182.596V125.889H199.215V129.529H178.137Z" fill="white"/>
<path d="M241.905 112.936C241.905 116.373 241.249 119.384 239.931 121.967C238.619 124.55 236.733 126.535 234.275 127.92C231.812 129.305 228.911 129.998 225.567 129.998C222.192 129.998 219.275 129.311 216.827 127.941C214.374 126.571 212.504 124.592 211.213 122.003C209.921 119.41 209.275 116.389 209.275 112.936C209.275 107.675 210.713 103.561 213.593 100.597C216.473 97.6336 220.478 96.1492 225.614 96.1492C228.957 96.1492 231.858 96.8159 234.317 98.144C236.78 99.4773 238.655 101.41 239.957 103.946C241.254 106.483 241.905 109.477 241.905 112.936ZM237.353 112.936C237.353 108.842 236.332 105.628 234.286 103.295C232.239 100.956 229.348 99.7898 225.614 99.7898C221.848 99.7898 218.937 100.946 216.885 103.248C214.827 105.55 213.801 108.779 213.801 112.936C213.801 117.055 214.843 120.326 216.916 122.748C218.994 125.17 221.879 126.378 225.567 126.378C229.364 126.378 232.275 125.206 234.306 122.863C236.338 120.524 237.353 117.212 237.353 112.936Z" fill="white"/>
<path d="M252.805 112.936C252.805 107.597 254.232 103.467 257.096 100.54C259.961 97.6127 263.982 96.1492 269.164 96.1492C272.805 96.1492 275.763 96.7638 278.034 97.993C280.305 99.2221 282.06 101.191 283.289 103.899L279.039 105.16C278.107 103.295 276.815 101.93 275.174 101.076C273.534 100.222 271.492 99.7898 269.049 99.7898C265.253 99.7898 262.352 100.941 260.341 103.233C258.336 105.529 257.331 108.764 257.331 112.936C257.331 117.087 258.398 120.368 260.529 122.774C262.659 125.175 265.612 126.378 269.378 126.378C271.523 126.378 273.529 126.05 275.388 125.399C277.247 124.743 278.753 123.858 279.904 122.738V116.811H270.076V113.071H284.013V124.42C282.268 126.191 280.133 127.566 277.602 128.54C275.076 129.509 272.331 129.998 269.378 129.998C265.935 129.998 262.971 129.311 260.482 127.941C257.992 126.571 256.091 124.602 254.773 122.024C253.461 119.451 252.805 116.42 252.805 112.936Z" fill="white"/>
<path d="M342.645 106.54C342.645 109.649 341.629 112.123 339.598 113.962C337.566 115.795 334.811 116.717 331.322 116.717H321.66V129.529H317.202V96.6388H331.046C334.733 96.6388 337.587 97.5033 339.608 99.2325C341.634 100.956 342.645 103.394 342.645 106.54ZM338.16 106.587C338.16 102.337 335.608 100.212 330.504 100.212H321.66V113.191H330.691C335.671 113.191 338.16 110.988 338.16 106.587Z" fill="white"/>
<path d="M386.268 112.936C386.268 116.373 385.611 119.384 384.294 121.967C382.981 124.55 381.096 126.535 378.637 127.92C376.174 129.305 373.273 129.998 369.929 129.998C366.554 129.998 363.637 129.311 361.189 127.941C358.736 126.571 356.866 124.592 355.575 122.003C354.283 119.41 353.637 116.389 353.637 112.936C353.637 107.675 355.075 103.561 357.955 100.597C360.835 97.6336 364.84 96.1492 369.976 96.1492C373.32 96.1492 376.221 96.8159 378.679 98.144C381.143 99.4773 383.018 101.41 384.32 103.946C385.616 106.483 386.268 109.477 386.268 112.936ZM381.715 112.936C381.715 108.842 380.695 105.628 378.648 103.295C376.601 100.956 373.71 99.7898 369.976 99.7898C366.21 99.7898 363.299 100.946 361.247 103.248C359.189 105.55 358.163 108.779 358.163 112.936C358.163 117.055 359.205 120.326 361.278 122.748C363.356 125.17 366.241 126.378 369.929 126.378C373.726 126.378 376.637 125.206 378.669 122.863C380.7 120.524 381.715 117.212 381.715 112.936Z" fill="white"/>
<path d="M424.453 120.451C424.453 123.483 423.266 125.831 420.891 127.498C418.521 129.165 415.177 129.998 410.865 129.998C402.854 129.998 398.208 127.212 396.932 121.639L401.25 120.774C401.745 122.753 402.807 124.201 404.422 125.128C406.042 126.055 408.245 126.519 411.031 126.519C413.906 126.519 416.13 126.024 417.693 125.035C419.255 124.05 420.042 122.597 420.042 120.68C420.042 119.608 419.797 118.738 419.302 118.071C418.813 117.399 418.125 116.847 417.24 116.41C416.354 115.977 415.292 115.608 414.063 115.316C412.833 115.019 411.474 114.701 409.979 114.358C407.38 113.779 405.406 113.206 404.063 112.628C402.714 112.055 401.656 111.415 400.875 110.706C400.099 109.998 399.505 109.17 399.089 108.217C398.677 107.269 398.474 106.18 398.474 104.951C398.474 102.134 399.547 99.9617 401.703 98.4357C403.859 96.9148 406.943 96.1492 410.958 96.1492C414.693 96.1492 417.552 96.7221 419.526 97.868C421.5 99.0086 422.885 100.956 423.682 103.712L419.292 104.483C418.813 102.743 417.891 101.477 416.537 100.691C415.182 99.9044 413.307 99.5138 410.912 99.5138C408.281 99.5138 406.276 99.9461 404.891 100.821C403.505 101.691 402.813 102.988 402.813 104.717C402.813 105.727 403.083 106.566 403.62 107.227C404.156 107.889 404.927 108.446 405.943 108.904C406.953 109.368 408.969 109.93 411.984 110.597C413 110.831 414.005 111.071 415.01 111.311C416.016 111.55 416.974 111.842 417.891 112.175C418.813 112.509 419.672 112.904 420.474 113.352C421.271 113.805 421.969 114.358 422.563 115.009C423.151 115.665 423.615 116.436 423.948 117.321C424.287 118.206 424.453 119.253 424.453 120.451Z" fill="white"/>
<path d="M449.659 100.285V129.529H445.222V100.285H433.925V96.6388H460.956V100.285H449.659Z" fill="white"/>
<path d="M497.953 120.451C497.953 123.483 496.765 125.831 494.39 127.498C492.02 129.165 488.677 129.998 484.364 129.998C476.354 129.998 471.708 127.212 470.432 121.639L474.75 120.774C475.244 122.753 476.307 124.201 477.921 125.128C479.541 126.055 481.744 126.519 484.531 126.519C487.406 126.519 489.63 126.024 491.192 125.035C492.755 124.05 493.541 122.597 493.541 120.68C493.541 119.608 493.296 118.738 492.802 118.071C492.312 117.399 491.625 116.847 490.739 116.41C489.854 115.977 488.791 115.608 487.562 115.316C486.333 115.019 484.974 114.701 483.479 114.358C480.88 113.779 478.906 113.206 477.562 112.628C476.213 112.055 475.156 111.415 474.375 110.706C473.599 109.998 473.005 109.17 472.588 108.217C472.177 107.269 471.974 106.18 471.974 104.951C471.974 102.134 473.046 99.9617 475.203 98.4357C477.359 96.9148 480.442 96.1492 484.458 96.1492C488.192 96.1492 491.052 96.7221 493.026 97.868C495 99.0086 496.385 100.956 497.182 103.712L492.791 104.483C492.312 102.743 491.39 101.477 490.036 100.691C488.682 99.9044 486.807 99.5138 484.411 99.5138C481.781 99.5138 479.776 99.9461 478.39 100.821C477.005 101.691 476.312 102.988 476.312 104.717C476.312 105.727 476.583 106.566 477.119 107.227C477.656 107.889 478.427 108.446 479.442 108.904C480.453 109.368 482.468 109.93 485.484 110.597C486.5 110.831 487.505 111.071 488.51 111.311C489.515 111.55 490.474 111.842 491.39 112.175C492.312 112.509 493.171 112.904 493.974 113.352C494.77 113.805 495.468 114.358 496.062 115.009C496.651 115.665 497.114 116.436 497.448 117.321C497.786 118.206 497.953 119.253 497.953 120.451Z" fill="white"/>
</svg>
