<svg xmlns="http://www.w3.org/2000/svg" xmlns:xlink="http://www.w3.org/1999/xlink" width="1364" zoomAndPan="magnify" viewBox="0 0 1023 510.000002" height="680" preserveAspectRatio="xMidYMid meet" version="1.0"><defs><g/><clipPath id="125722d498"><path d="M 1 0 L 1022 0 L 1022 414 L 1 414 Z M 1 0 " clip-rule="nonzero"/></clipPath><clipPath id="1dfe409845"><path d="M 268 146 L 760 146 L 760 509.003906 L 268 509.003906 Z M 268 146 " clip-rule="nonzero"/></clipPath><clipPath id="bc89130806"><path d="M 1 0 L 1022 0 L 1022 414 L 1 414 Z M 1 0 " clip-rule="nonzero"/></clipPath><clipPath id="7e21ee7fcc"><path d="M 268 146 L 760 146 L 760 509.003906 L 268 509.003906 Z M 268 146 " clip-rule="nonzero"/></clipPath></defs><g clip-path="url(#125722d498)"><path stroke-linecap="butt" transform="matrix(0.748532, 0, 0, 0.748532, 55.526464, 102.337034)" fill="none" stroke-linejoin="miter" d="M 219.180105 87.925815 C 208.82651 76.779001 192.502898 66.759393 169.410832 66.759393 C 131.654652 66.759393 100.661708 97.41835 100.661708 135.503299 C 100.661708 173.525624 131.654652 204.252423 169.676978 204.252423 C 192.236752 204.252423 209.092656 193.966669 219.180105 183.086001 L 213.737162 177.909203 C 201.196996 190.647674 186.532882 197.217823 169.410832 197.217823 C 135.43288 197.217823 108.823514 169.747397 108.823514 135.503299 C 108.823514 101.530564 135.699025 74.060139 169.410832 74.060139 C 186.00059 74.060139 201.196996 80.562447 214.003307 93.102613 Z M 302.311542 66.759393 C 263.694302 66.759393 233.30149 97.152204 233.30149 135.503299 C 233.30149 173.79177 263.428156 203.986277 302.050615 203.986277 C 340.667855 203.986277 371.389435 173.525624 371.389435 135.503299 C 371.389435 97.152204 340.667855 66.759393 302.311542 66.759393 Z M 302.050615 74.060139 C 336.55564 74.060139 363.227629 100.998273 363.227629 135.242371 C 363.227629 170.27447 336.821786 196.951677 302.311542 196.951677 C 268.338808 196.951677 241.463296 170.013543 241.463296 135.769444 C 241.463296 100.998273 268.072662 74.060139 302.050615 74.060139 Z M 400.148841 66.15926 L 400.148841 201.001269 L 408.044501 201.001269 L 408.044501 84.408515 L 538.236786 204.252423 L 538.236786 69.149487 L 530.341126 69.149487 L 530.341126 186.337155 Z M 562.957038 69.149487 L 562.957038 76.779001 L 622.479773 76.779001 L 622.479773 201.001269 L 630.375433 201.001269 L 630.375433 76.779001 L 689.104949 76.779001 L 689.104949 69.149487 Z M 829.864789 69.149487 L 829.864789 103.983281 C 820.372254 81.423507 795.886836 66.759393 769.809762 66.759393 C 731.787436 66.759393 700.799711 96.619913 700.799711 135.242371 C 700.799711 174.918976 731.787436 203.986277 770.075908 203.986277 C 795.886836 203.986277 817.1211 191.508734 829.864789 167.289462 L 829.864789 201.001269 L 837.760449 201.001269 L 837.760449 69.149487 Z M 769.277471 74.060139 C 803.255423 74.060139 830.991995 100.732127 830.991995 135.769444 C 830.991995 170.27447 803.782496 196.951677 770.342054 196.951677 C 735.83181 196.951677 708.961516 170.27447 708.961516 135.242371 C 708.961516 100.998273 736.097955 74.060139 769.277471 74.060139 Z M 985.111312 87.925815 C 974.757717 76.779001 958.434106 66.759393 935.34204 66.759393 C 897.58586 66.759393 866.592915 97.41835 866.592915 135.503299 C 866.592915 173.525624 897.58586 204.252423 935.608186 204.252423 C 958.16796 204.252423 975.023863 193.966669 985.111312 183.086001 L 979.668369 177.909203 C 967.128203 190.647674 952.45887 197.217823 935.34204 197.217823 C 901.364087 197.217823 874.754721 169.747397 874.754721 135.503299 C 874.754721 101.530564 901.630233 74.060139 935.34204 74.060139 C 951.931797 74.060139 967.128203 80.562447 979.934515 93.102613 Z M 995.120484 69.149487 L 995.120484 76.779001 L 1054.643219 76.779001 L 1054.643219 201.001269 L 1062.538879 201.001269 L 1062.538879 76.779001 L 1121.263176 76.779001 L 1121.263176 69.149487 Z M 995.120484 69.149487 " stroke="#e7dfd8" stroke-width="37.372913" stroke-opacity="1" stroke-miterlimit="4"/></g><g clip-path="url(#1dfe409845)"><path stroke-linecap="butt" transform="matrix(0.748532, 0, 0, 0.748532, 55.526464, 102.337034)" fill="none" stroke-linejoin="miter" d="M 495.329901 403.997488 L 503.15772 403.997488 L 503.15772 319.196116 C 503.15772 305.059075 504.817218 296.631123 510.260161 289.862669 C 516.230178 281.967009 526.849919 277.056357 536.603381 277.056357 C 549.675838 277.056357 561.354944 284.158798 566.531742 295.571758 C 569.250604 301.807921 570.309969 308.842521 570.309969 320.855614 L 570.309969 403.997488 L 578.210848 403.997488 L 578.210848 320.855614 C 578.210848 308.842521 579.270213 301.807921 581.989075 295.571758 C 587.165873 284.158798 598.844978 277.056357 611.917436 277.056357 C 621.670898 277.056357 632.290639 281.967009 638.260656 289.862669 C 642.378089 295.039467 645.363097 302.340213 645.363097 309.703581 L 645.363097 403.997488 L 653.190916 403.997488 L 653.190916 319.989335 C 653.190916 307.51701 652.92477 297.163415 645.02911 286.016601 C 637.467437 275.730847 624.922053 269.76083 611.65129 269.76083 C 594.268314 269.76083 580.397418 280.907644 574.427402 297.429561 C 568.123398 280.307512 554.58649 269.76083 537.135673 269.76083 C 523.598764 269.76083 511.05338 275.730847 503.423866 286.016601 C 498.847201 292.58675 496.12312 301.014702 495.590828 309.969727 C 495.329901 312.693808 495.329901 315.944962 495.329901 319.989335 Z M 728.515408 270.021758 C 726.855911 269.76083 725.796546 269.76083 724.66934 269.76083 C 705.689488 269.76083 689.89295 286.282747 689.89295 305.857513 C 689.89295 320.255481 699.980399 334.126376 712.724088 336.845238 C 699.980399 338.770882 688.567439 354.562202 688.567439 370.024754 C 688.567439 390.397957 704.296136 407.25386 726.062692 407.25386 C 726.855911 407.25386 727.716971 407.25386 728.515408 407.25386 L 728.515408 399.619128 L 726.323619 399.619128 C 709.206788 399.619128 696.729245 387.146803 696.729245 370.290899 C 696.729245 353.701142 709.472934 340.696525 726.062692 340.696525 L 728.515408 340.696525 L 728.515408 333.061793 L 726.062692 333.061793 C 710.266153 333.061793 698.059974 320.855614 698.059974 305.059075 C 698.059974 289.267755 710.266153 277.322503 726.062692 277.322503 C 726.855911 277.322503 727.716971 277.322503 728.515408 277.322503 Z M 728.515408 270.021758 " stroke="#e7dfd8" stroke-width="37.372913" stroke-opacity="1" stroke-miterlimit="4"/></g><g fill="#cc3f0c" fill-opacity="1"><g transform="translate(122.929455, 252.792019)"><g><path d="M 96.640625 -84.640625 C 88.90625 -92.984375 76.703125 -100.5 59.40625 -100.5 C 31.125 -100.5 7.9375 -77.515625 7.9375 -49.03125 C 7.9375 -20.546875 31.125 2.4375 59.609375 2.4375 C 76.5 2.4375 89.109375 -5.296875 96.640625 -13.421875 L 92.578125 -17.296875 C 83.21875 -7.734375 72.21875 -2.84375 59.40625 -2.84375 C 33.984375 -2.84375 14.03125 -23.390625 14.03125 -49.03125 C 14.03125 -74.46875 34.1875 -95.015625 59.40625 -95.015625 C 71.8125 -95.015625 83.21875 -90.125 92.78125 -80.765625 Z M 96.640625 -84.640625 "/></g></g></g><g fill="#cc3f0c" fill-opacity="1"><g transform="translate(222.213357, 252.792019)"><g><path d="M 59.609375 -100.5 C 30.71875 -100.5 7.9375 -77.71875 7.9375 -49.03125 C 7.9375 -20.34375 30.515625 2.234375 59.40625 2.234375 C 88.296875 2.234375 111.28125 -20.546875 111.28125 -49.03125 C 111.28125 -77.71875 88.296875 -100.5 59.609375 -100.5 Z M 59.40625 -95.015625 C 85.25 -95.015625 105.1875 -74.875 105.1875 -49.234375 C 105.1875 -22.984375 85.453125 -3.046875 59.609375 -3.046875 C 34.1875 -3.046875 14.03125 -23.1875 14.03125 -48.828125 C 14.03125 -74.875 33.984375 -95.015625 59.40625 -95.015625 Z M 59.40625 -95.015625 "/></g></g></g><g fill="#cc3f0c" fill-opacity="1"><g transform="translate(337.366404, 252.792019)"><g><path d="M 17.703125 -100.90625 L 17.703125 0 L 23.59375 0 L 23.59375 -87.28125 L 121.046875 2.4375 L 121.046875 -98.671875 L 115.15625 -98.671875 L 115.15625 -10.984375 Z M 17.703125 -100.90625 "/></g></g></g><g fill="#cc3f0c" fill-opacity="1"><g transform="translate(472.050697, 252.792019)"><g><path d="M 4.890625 -98.671875 L 4.890625 -92.984375 L 49.4375 -92.984375 L 49.4375 0 L 55.34375 0 L 55.34375 -92.984375 L 99.28125 -92.984375 L 99.28125 -98.671875 Z M 4.890625 -98.671875 "/></g></g></g><g fill="#cc3f0c" fill-opacity="1"><g transform="translate(572.148406, 252.792019)"><g><path d="M 104.578125 -98.671875 L 104.578125 -72.625 C 97.453125 -89.515625 79.140625 -100.5 59.609375 -100.5 C 31.125 -100.5 7.9375 -78.125 7.9375 -49.234375 C 7.9375 -19.53125 31.125 2.234375 59.8125 2.234375 C 79.140625 2.234375 95.015625 -7.125 104.578125 -25.234375 L 104.578125 0 L 110.46875 0 L 110.46875 -98.671875 Z M 59.203125 -95.015625 C 84.640625 -95.015625 105.390625 -75.078125 105.390625 -48.828125 C 105.390625 -22.984375 85.046875 -3.046875 60.015625 -3.046875 C 34.1875 -3.046875 14.03125 -22.984375 14.03125 -49.234375 C 14.03125 -74.875 34.390625 -95.015625 59.203125 -95.015625 Z M 59.203125 -95.015625 "/></g></g></g><g fill="#cc3f0c" fill-opacity="1"><g transform="translate(696.253264, 252.792019)"><g><path d="M 96.640625 -84.640625 C 88.90625 -92.984375 76.703125 -100.5 59.40625 -100.5 C 31.125 -100.5 7.9375 -77.515625 7.9375 -49.03125 C 7.9375 -20.546875 31.125 2.4375 59.609375 2.4375 C 76.5 2.4375 89.109375 -5.296875 96.640625 -13.421875 L 92.578125 -17.296875 C 83.21875 -7.734375 72.21875 -2.84375 59.40625 -2.84375 C 33.984375 -2.84375 14.03125 -23.390625 14.03125 -49.03125 C 14.03125 -74.46875 34.1875 -95.015625 59.40625 -95.015625 C 71.8125 -95.015625 83.21875 -90.125 92.78125 -80.765625 Z M 96.640625 -84.640625 "/></g></g></g><g fill="#cc3f0c" fill-opacity="1"><g transform="translate(795.537178, 252.792019)"><g><path d="M 4.890625 -98.671875 L 4.890625 -92.984375 L 49.4375 -92.984375 L 49.4375 0 L 55.34375 0 L 55.34375 -92.984375 L 99.28125 -92.984375 L 99.28125 -98.671875 Z M 4.890625 -98.671875 "/></g></g></g><g fill="#cc3f0c" fill-opacity="1"><g transform="translate(895.636969, 252.792019)"><g/></g></g><g fill="#cc3f0c" fill-opacity="1"><g transform="translate(410.202106, 404.744068)"><g><path d="M 16.078125 0 L 21.96875 0 L 21.96875 -63.484375 C 21.96875 -74.0625 23.1875 -80.359375 27.265625 -85.453125 C 31.734375 -91.34375 39.671875 -95.015625 47 -95.015625 C 56.765625 -95.015625 65.515625 -89.71875 69.375 -81.171875 C 71.40625 -76.5 72.21875 -71.203125 72.21875 -62.25 L 72.21875 0 L 78.125 0 L 78.125 -62.25 C 78.125 -71.203125 78.9375 -76.5 80.96875 -81.171875 C 84.84375 -89.71875 93.59375 -95.015625 103.359375 -95.015625 C 110.671875 -95.015625 118.609375 -91.34375 123.09375 -85.453125 C 126.140625 -81.578125 128.375 -76.09375 128.375 -70.59375 L 128.375 0 L 134.28125 0 L 134.28125 -62.859375 C 134.28125 -72.21875 134.078125 -79.953125 128.171875 -88.296875 C 122.484375 -96.03125 113.125 -100.5 103.15625 -100.5 C 90.125 -100.5 79.75 -92.171875 75.28125 -79.75 C 70.59375 -92.578125 60.421875 -100.5 47.40625 -100.5 C 37.234375 -100.5 27.875 -96.03125 22.171875 -88.296875 C 18.71875 -83.421875 16.6875 -77.109375 16.28125 -70.390625 C 16.078125 -68.359375 16.078125 -65.921875 16.078125 -62.859375 Z M 16.078125 0 "/></g></g></g><g fill="#cc3f0c" fill-opacity="1"><g transform="translate(556.686576, 404.744068)"><g><path d="M 44.15625 -100.296875 C 42.921875 -100.5 42.109375 -100.5 41.296875 -100.5 C 27.0625 -100.5 15.265625 -88.09375 15.265625 -73.453125 C 15.265625 -62.65625 22.78125 -52.28125 32.34375 -50.25 C 22.78125 -48.828125 14.234375 -37.03125 14.234375 -25.4375 C 14.234375 -10.171875 26.046875 2.4375 42.3125 2.4375 C 42.921875 2.4375 43.53125 2.4375 44.15625 2.4375 L 44.15625 -3.25 L 42.515625 -3.25 C 29.703125 -3.25 20.34375 -12.609375 20.34375 -25.234375 C 20.34375 -37.640625 29.90625 -47.40625 42.3125 -47.40625 L 44.15625 -47.40625 L 44.15625 -53.09375 L 42.3125 -53.09375 C 30.515625 -53.09375 21.359375 -62.25 21.359375 -74.0625 C 21.359375 -85.859375 30.515625 -94.8125 42.3125 -94.8125 C 42.921875 -94.8125 43.53125 -94.8125 44.15625 -94.8125 Z M 44.15625 -100.296875 "/></g></g></g><g fill="#cc3f0c" fill-opacity="1"><g transform="translate(608.364322, 404.744068)"><g/></g></g><g clip-path="url(#bc89130806)"><path stroke-linecap="butt" transform="matrix(0.748532, 0, 0, 0.748532, 55.526464, 102.337034)" fill="none" stroke-linejoin="miter" d="M 219.180105 87.925815 C 208.82651 76.779001 192.502898 66.759393 169.410832 66.759393 C 131.654652 66.759393 100.661708 97.41835 100.661708 135.503299 C 100.661708 173.525624 131.654652 204.252423 169.676978 204.252423 C 192.236752 204.252423 209.092656 193.966669 219.180105 183.086001 L 213.737162 177.909203 C 201.196996 190.647674 186.532882 197.217823 169.410832 197.217823 C 135.43288 197.217823 108.823514 169.747397 108.823514 135.503299 C 108.823514 101.530564 135.699025 74.060139 169.410832 74.060139 C 186.00059 74.060139 201.196996 80.562447 214.003307 93.102613 Z M 302.311542 66.759393 C 263.694302 66.759393 233.30149 97.152204 233.30149 135.503299 C 233.30149 173.79177 263.428156 203.986277 302.050615 203.986277 C 340.667855 203.986277 371.389435 173.525624 371.389435 135.503299 C 371.389435 97.152204 340.667855 66.759393 302.311542 66.759393 Z M 302.050615 74.060139 C 336.55564 74.060139 363.227629 100.998273 363.227629 135.242371 C 363.227629 170.27447 336.821786 196.951677 302.311542 196.951677 C 268.338808 196.951677 241.463296 170.013543 241.463296 135.769444 C 241.463296 100.998273 268.072662 74.060139 302.050615 74.060139 Z M 400.148841 66.15926 L 400.148841 201.001269 L 408.044501 201.001269 L 408.044501 84.408515 L 538.236786 204.252423 L 538.236786 69.149487 L 530.341126 69.149487 L 530.341126 186.337155 Z M 562.957038 69.149487 L 562.957038 76.779001 L 622.479773 76.779001 L 622.479773 201.001269 L 630.375433 201.001269 L 630.375433 76.779001 L 689.104949 76.779001 L 689.104949 69.149487 Z M 829.864789 69.149487 L 829.864789 103.983281 C 820.372254 81.423507 795.886836 66.759393 769.809762 66.759393 C 731.787436 66.759393 700.799711 96.619913 700.799711 135.242371 C 700.799711 174.918976 731.787436 203.986277 770.075908 203.986277 C 795.886836 203.986277 817.1211 191.508734 829.864789 167.289462 L 829.864789 201.001269 L 837.760449 201.001269 L 837.760449 69.149487 Z M 769.277471 74.060139 C 803.255423 74.060139 830.991995 100.732127 830.991995 135.769444 C 830.991995 170.27447 803.782496 196.951677 770.342054 196.951677 C 735.83181 196.951677 708.961516 170.27447 708.961516 135.242371 C 708.961516 100.998273 736.097955 74.060139 769.277471 74.060139 Z M 985.111312 87.925815 C 974.757717 76.779001 958.434106 66.759393 935.34204 66.759393 C 897.58586 66.759393 866.592915 97.41835 866.592915 135.503299 C 866.592915 173.525624 897.58586 204.252423 935.608186 204.252423 C 958.16796 204.252423 975.023863 193.966669 985.111312 183.086001 L 979.668369 177.909203 C 967.128203 190.647674 952.45887 197.217823 935.34204 197.217823 C 901.364087 197.217823 874.754721 169.747397 874.754721 135.503299 C 874.754721 101.530564 901.630233 74.060139 935.34204 74.060139 C 951.931797 74.060139 967.128203 80.562447 979.934515 93.102613 Z M 995.120484 69.149487 L 995.120484 76.779001 L 1054.643219 76.779001 L 1054.643219 201.001269 L 1062.538879 201.001269 L 1062.538879 76.779001 L 1121.263176 76.779001 L 1121.263176 69.149487 Z M 995.120484 69.149487 " stroke="#e7dfd8" stroke-width="37.372913" stroke-opacity="1" stroke-miterlimit="4"/></g><g clip-path="url(#7e21ee7fcc)"><path stroke-linecap="butt" transform="matrix(0.748532, 0, 0, 0.748532, 55.526464, 102.337034)" fill="none" stroke-linejoin="miter" d="M 495.329901 403.997488 L 503.15772 403.997488 L 503.15772 319.196116 C 503.15772 305.059075 504.817218 296.631123 510.260161 289.862669 C 516.230178 281.967009 526.849919 277.056357 536.603381 277.056357 C 549.675838 277.056357 561.354944 284.158798 566.531742 295.571758 C 569.250604 301.807921 570.309969 308.842521 570.309969 320.855614 L 570.309969 403.997488 L 578.210848 403.997488 L 578.210848 320.855614 C 578.210848 308.842521 579.270213 301.807921 581.989075 295.571758 C 587.165873 284.158798 598.844978 277.056357 611.917436 277.056357 C 621.670898 277.056357 632.290639 281.967009 638.260656 289.862669 C 642.378089 295.039467 645.363097 302.340213 645.363097 309.703581 L 645.363097 403.997488 L 653.190916 403.997488 L 653.190916 319.989335 C 653.190916 307.51701 652.92477 297.163415 645.02911 286.016601 C 637.467437 275.730847 624.922053 269.76083 611.65129 269.76083 C 594.268314 269.76083 580.397418 280.907644 574.427402 297.429561 C 568.123398 280.307512 554.58649 269.76083 537.135673 269.76083 C 523.598764 269.76083 511.05338 275.730847 503.423866 286.016601 C 498.847201 292.58675 496.12312 301.014702 495.590828 309.969727 C 495.329901 312.693808 495.329901 315.944962 495.329901 319.989335 Z M 728.515408 270.021758 C 726.855911 269.76083 725.796546 269.76083 724.66934 269.76083 C 705.689488 269.76083 689.89295 286.282747 689.89295 305.857513 C 689.89295 320.255481 699.980399 334.126376 712.724088 336.845238 C 699.980399 338.770882 688.567439 354.562202 688.567439 370.024754 C 688.567439 390.397957 704.296136 407.25386 726.062692 407.25386 C 726.855911 407.25386 727.716971 407.25386 728.515408 407.25386 L 728.515408 399.619128 L 726.323619 399.619128 C 709.206788 399.619128 696.729245 387.146803 696.729245 370.290899 C 696.729245 353.701142 709.472934 340.696525 726.062692 340.696525 L 728.515408 340.696525 L 728.515408 333.061793 L 726.062692 333.061793 C 710.266153 333.061793 698.059974 320.855614 698.059974 305.059075 C 698.059974 289.267755 710.266153 277.322503 726.062692 277.322503 C 726.855911 277.322503 727.716971 277.322503 728.515408 277.322503 Z M 728.515408 270.021758 " stroke="#e7dfd8" stroke-width="37.372913" stroke-opacity="1" stroke-miterlimit="4"/></g><g fill="#cc3f0c" fill-opacity="1"><g transform="translate(122.929455, 252.792019)"><g><path d="M 96.640625 -84.640625 C 88.90625 -92.984375 76.703125 -100.5 59.40625 -100.5 C 31.125 -100.5 7.9375 -77.515625 7.9375 -49.03125 C 7.9375 -20.546875 31.125 2.4375 59.609375 2.4375 C 76.5 2.4375 89.109375 -5.296875 96.640625 -13.421875 L 92.578125 -17.296875 C 83.21875 -7.734375 72.21875 -2.84375 59.40625 -2.84375 C 33.984375 -2.84375 14.03125 -23.390625 14.03125 -49.03125 C 14.03125 -74.46875 34.1875 -95.015625 59.40625 -95.015625 C 71.8125 -95.015625 83.21875 -90.125 92.78125 -80.765625 Z M 96.640625 -84.640625 "/></g></g></g><g fill="#cc3f0c" fill-opacity="1"><g transform="translate(222.213357, 252.792019)"><g><path d="M 59.609375 -100.5 C 30.71875 -100.5 7.9375 -77.71875 7.9375 -49.03125 C 7.9375 -20.34375 30.515625 2.234375 59.40625 2.234375 C 88.296875 2.234375 111.28125 -20.546875 111.28125 -49.03125 C 111.28125 -77.71875 88.296875 -100.5 59.609375 -100.5 Z M 59.40625 -95.015625 C 85.25 -95.015625 105.1875 -74.875 105.1875 -49.234375 C 105.1875 -22.984375 85.453125 -3.046875 59.609375 -3.046875 C 34.1875 -3.046875 14.03125 -23.1875 14.03125 -48.828125 C 14.03125 -74.875 33.984375 -95.015625 59.40625 -95.015625 Z M 59.40625 -95.015625 "/></g></g></g><g fill="#cc3f0c" fill-opacity="1"><g transform="translate(337.366404, 252.792019)"><g><path d="M 17.703125 -100.90625 L 17.703125 0 L 23.59375 0 L 23.59375 -87.28125 L 121.046875 2.4375 L 121.046875 -98.671875 L 115.15625 -98.671875 L 115.15625 -10.984375 Z M 17.703125 -100.90625 "/></g></g></g><g fill="#cc3f0c" fill-opacity="1"><g transform="translate(472.050697, 252.792019)"><g><path d="M 4.890625 -98.671875 L 4.890625 -92.984375 L 49.4375 -92.984375 L 49.4375 0 L 55.34375 0 L 55.34375 -92.984375 L 99.28125 -92.984375 L 99.28125 -98.671875 Z M 4.890625 -98.671875 "/></g></g></g><g fill="#cc3f0c" fill-opacity="1"><g transform="translate(572.148406, 252.792019)"><g><path d="M 104.578125 -98.671875 L 104.578125 -72.625 C 97.453125 -89.515625 79.140625 -100.5 59.609375 -100.5 C 31.125 -100.5 7.9375 -78.125 7.9375 -49.234375 C 7.9375 -19.53125 31.125 2.234375 59.8125 2.234375 C 79.140625 2.234375 95.015625 -7.125 104.578125 -25.234375 L 104.578125 0 L 110.46875 0 L 110.46875 -98.671875 Z M 59.203125 -95.015625 C 84.640625 -95.015625 105.390625 -75.078125 105.390625 -48.828125 C 105.390625 -22.984375 85.046875 -3.046875 60.015625 -3.046875 C 34.1875 -3.046875 14.03125 -22.984375 14.03125 -49.234375 C 14.03125 -74.875 34.390625 -95.015625 59.203125 -95.015625 Z M 59.203125 -95.015625 "/></g></g></g><g fill="#cc3f0c" fill-opacity="1"><g transform="translate(696.253264, 252.792019)"><g><path d="M 96.640625 -84.640625 C 88.90625 -92.984375 76.703125 -100.5 59.40625 -100.5 C 31.125 -100.5 7.9375 -77.515625 7.9375 -49.03125 C 7.9375 -20.546875 31.125 2.4375 59.609375 2.4375 C 76.5 2.4375 89.109375 -5.296875 96.640625 -13.421875 L 92.578125 -17.296875 C 83.21875 -7.734375 72.21875 -2.84375 59.40625 -2.84375 C 33.984375 -2.84375 14.03125 -23.390625 14.03125 -49.03125 C 14.03125 -74.46875 34.1875 -95.015625 59.40625 -95.015625 C 71.8125 -95.015625 83.21875 -90.125 92.78125 -80.765625 Z M 96.640625 -84.640625 "/></g></g></g><g fill="#cc3f0c" fill-opacity="1"><g transform="translate(795.537178, 252.792019)"><g><path d="M 4.890625 -98.671875 L 4.890625 -92.984375 L 49.4375 -92.984375 L 49.4375 0 L 55.34375 0 L 55.34375 -92.984375 L 99.28125 -92.984375 L 99.28125 -98.671875 Z M 4.890625 -98.671875 "/></g></g></g><g fill="#cc3f0c" fill-opacity="1"><g transform="translate(895.636969, 252.792019)"><g/></g></g><g fill="#cc3f0c" fill-opacity="1"><g transform="translate(410.202106, 404.744068)"><g><path d="M 16.078125 0 L 21.96875 0 L 21.96875 -63.484375 C 21.96875 -74.0625 23.1875 -80.359375 27.265625 -85.453125 C 31.734375 -91.34375 39.671875 -95.015625 47 -95.015625 C 56.765625 -95.015625 65.515625 -89.71875 69.375 -81.171875 C 71.40625 -76.5 72.21875 -71.203125 72.21875 -62.25 L 72.21875 0 L 78.125 0 L 78.125 -62.25 C 78.125 -71.203125 78.9375 -76.5 80.96875 -81.171875 C 84.84375 -89.71875 93.59375 -95.015625 103.359375 -95.015625 C 110.671875 -95.015625 118.609375 -91.34375 123.09375 -85.453125 C 126.140625 -81.578125 128.375 -76.09375 128.375 -70.59375 L 128.375 0 L 134.28125 0 L 134.28125 -62.859375 C 134.28125 -72.21875 134.078125 -79.953125 128.171875 -88.296875 C 122.484375 -96.03125 113.125 -100.5 103.15625 -100.5 C 90.125 -100.5 79.75 -92.171875 75.28125 -79.75 C 70.59375 -92.578125 60.421875 -100.5 47.40625 -100.5 C 37.234375 -100.5 27.875 -96.03125 22.171875 -88.296875 C 18.71875 -83.421875 16.6875 -77.109375 16.28125 -70.390625 C 16.078125 -68.359375 16.078125 -65.921875 16.078125 -62.859375 Z M 16.078125 0 "/></g></g></g><g fill="#cc3f0c" fill-opacity="1"><g transform="translate(556.686576, 404.744068)"><g><path d="M 44.15625 -100.296875 C 42.921875 -100.5 42.109375 -100.5 41.296875 -100.5 C 27.0625 -100.5 15.265625 -88.09375 15.265625 -73.453125 C 15.265625 -62.65625 22.78125 -52.28125 32.34375 -50.25 C 22.78125 -48.828125 14.234375 -37.03125 14.234375 -25.4375 C 14.234375 -10.171875 26.046875 2.4375 42.3125 2.4375 C 42.921875 2.4375 43.53125 2.4375 44.15625 2.4375 L 44.15625 -3.25 L 42.515625 -3.25 C 29.703125 -3.25 20.34375 -12.609375 20.34375 -25.234375 C 20.34375 -37.640625 29.90625 -47.40625 42.3125 -47.40625 L 44.15625 -47.40625 L 44.15625 -53.09375 L 42.3125 -53.09375 C 30.515625 -53.09375 21.359375 -62.25 21.359375 -74.0625 C 21.359375 -85.859375 30.515625 -94.8125 42.3125 -94.8125 C 42.921875 -94.8125 43.53125 -94.8125 44.15625 -94.8125 Z M 44.15625 -100.296875 "/></g></g></g><g fill="#cc3f0c" fill-opacity="1"><g transform="translate(608.364322, 404.744068)"><g/></g></g></svg>