<svg width="486" height="228" viewBox="0 0 486 228" fill="none" xmlns="http://www.w3.org/2000/svg">
<path d="M75.0833 39.9167V227.271H31.3958V39.9167H0V0H106.479V39.9167H75.0833Z" fill="#CC3F0C"/>
<path d="M177.117 227.271V136.833H152.2V227.271H108.179V0H152.2V96.5625H177.117V0H220.783V227.271H177.117Z" fill="#CC3F0C"/>
<path d="M230.344 227.271V0H322.823V38.5625H274.031V92.8125H306.094V128.313H274.031V187.354H322.823V227.271H230.344Z" fill="#CC3F0C"/>
<path d="M229.284 75.6313H485.43V147.715H229.284V75.6313Z" fill="#6E8387"/>
<path d="M252.325 127.161V94.2649H256.783V123.515H273.408V127.161H252.325Z" fill="white"/>
<path d="M308.452 127.161L304.681 117.536H289.702L285.91 127.161H281.285L294.723 94.2649H299.785L312.994 127.161H308.452ZM297.202 97.6191L296.994 98.2857C296.603 99.5774 296.025 101.234 295.265 103.244L291.056 114.057H303.348L299.14 103.202C298.692 102.135 298.254 100.921 297.827 99.5566L297.202 97.6191Z" fill="white"/>
<path d="M336.106 97.9107V127.161H331.669V97.9107H320.377V94.2649H347.398V97.9107H336.106Z" fill="white"/>
<path d="M358.618 127.161V94.2649H383.577V97.9107H363.077V108.452H382.181V112.057H363.077V123.515H384.535V127.161H358.618Z" fill="white"/>
<path d="M422.481 118.077C422.481 121.119 421.293 123.473 418.918 125.14C416.554 126.796 413.215 127.619 408.897 127.619C400.882 127.619 396.236 124.838 394.96 119.265L399.293 118.411C399.778 120.385 400.824 121.838 402.439 122.765C404.064 123.682 406.272 124.14 409.064 124.14C411.939 124.14 414.158 123.65 415.731 122.661C417.298 121.676 418.085 120.223 418.085 118.307C418.085 117.239 417.835 116.369 417.335 115.702C416.845 115.036 416.158 114.489 415.272 114.057C414.382 113.614 413.319 113.244 412.085 112.952C410.861 112.65 409.507 112.327 408.022 111.994C405.408 111.411 403.429 110.838 402.085 110.265C400.752 109.682 399.694 109.036 398.918 108.327C398.137 107.619 397.543 106.796 397.127 105.848C396.71 104.906 396.502 103.817 396.502 102.577C396.502 99.7597 397.574 97.593 399.731 96.0774C401.897 94.5514 404.986 93.7858 409.002 93.7858C412.736 93.7858 415.59 94.3587 417.564 95.4941C419.533 96.6347 420.918 98.5878 421.71 101.348L417.335 102.119C416.845 100.369 415.923 99.1087 414.564 98.3274C413.215 97.5358 411.34 97.1399 408.939 97.1399C406.314 97.1399 404.304 97.5774 402.918 98.4524C401.543 99.317 400.856 100.614 400.856 102.348C400.856 103.364 401.116 104.202 401.647 104.869C402.189 105.525 402.965 106.077 403.981 106.536C404.991 106.994 407.007 107.557 410.022 108.223C411.033 108.463 412.043 108.702 413.043 108.952C414.043 109.192 415.002 109.473 415.918 109.807C416.845 110.14 417.71 110.536 418.502 110.994C419.304 111.442 420.002 111.989 420.585 112.64C421.179 113.296 421.647 114.067 421.981 114.952C422.314 115.843 422.481 116.885 422.481 118.077Z" fill="white"/>
<path d="M447.697 97.9107V127.161H443.26V97.9107H431.968V94.2649H458.989V97.9107H447.697Z" fill="white"/>
</svg>
