<svg width="487" height="228" viewBox="0 0 487 228" fill="none" xmlns="http://www.w3.org/2000/svg">
<path d="M75.9348 40.0405V227.395H32.2473V40.0405H0.85144V0.123871H107.331V40.0405H75.9348Z" fill="#6E8387"/>
<path d="M177.968 227.395V136.957H153.051V227.395H109.031V0.123871H153.051V96.6864H177.968V0.123871H221.635V227.395H177.968Z" fill="#6E8387"/>
<path d="M231.195 227.395V0.123871H323.674V38.6864H274.882V92.9364H306.945V128.436H274.882V187.478H323.674V227.395H231.195Z" fill="#6E8387"/>
<path d="M230.135 75.7552H486.281V147.839H230.135V75.7552Z" fill="#CC3F0C"/>
<path d="M253.176 127.285V94.3888H257.634V123.639H274.259V127.285H253.176Z" fill="white"/>
<path d="M309.304 127.285L305.533 117.66H290.554L286.762 127.285H282.137L295.574 94.3888H300.637L313.845 127.285H309.304ZM298.054 97.7429L297.845 98.4096C297.455 99.7013 296.876 101.358 296.116 103.368L291.908 114.18H304.199L299.991 103.326C299.543 102.259 299.106 101.045 298.679 99.6804L298.054 97.7429Z" fill="white"/>
<path d="M336.958 98.0346V127.285H332.52V98.0346H321.228V94.3888H348.249V98.0346H336.958Z" fill="white"/>
<path d="M359.47 127.285V94.3888H384.428V98.0346H363.928V108.576H383.032V112.18H363.928V123.639H385.386V127.285H359.47Z" fill="white"/>
<path d="M423.332 118.201C423.332 121.243 422.145 123.597 419.77 125.264C417.405 126.92 414.066 127.743 409.749 127.743C401.733 127.743 397.087 124.962 395.811 119.389L400.145 118.535C400.629 120.509 401.676 121.962 403.29 122.889C404.915 123.805 407.124 124.264 409.915 124.264C412.79 124.264 415.009 123.774 416.582 122.785C418.15 121.8 418.936 120.347 418.936 118.43C418.936 117.363 418.686 116.493 418.186 115.826C417.697 115.16 417.009 114.613 416.124 114.18C415.233 113.738 414.171 113.368 412.936 113.076C411.712 112.774 410.358 112.451 408.874 112.118C406.259 111.535 404.28 110.962 402.936 110.389C401.603 109.805 400.546 109.16 399.77 108.451C398.988 107.743 398.395 106.92 397.978 105.972C397.561 105.029 397.353 103.941 397.353 102.701C397.353 99.8836 398.426 97.7169 400.582 96.2013C402.749 94.6752 405.837 93.9096 409.853 93.9096C413.587 93.9096 416.441 94.4825 418.415 95.618C420.384 96.7586 421.77 98.7117 422.561 101.472L418.186 102.243C417.697 100.493 416.775 99.2325 415.415 98.4513C414.066 97.6596 412.191 97.2638 409.79 97.2638C407.165 97.2638 405.155 97.7013 403.77 98.5763C402.395 99.4409 401.707 100.738 401.707 102.472C401.707 103.488 401.968 104.326 402.499 104.993C403.04 105.649 403.816 106.201 404.832 106.66C405.843 107.118 407.858 107.68 410.874 108.347C411.884 108.587 412.895 108.826 413.895 109.076C414.895 109.316 415.853 109.597 416.77 109.93C417.697 110.264 418.561 110.66 419.353 111.118C420.155 111.566 420.853 112.113 421.436 112.764C422.03 113.42 422.499 114.191 422.832 115.076C423.165 115.967 423.332 117.009 423.332 118.201Z" fill="white"/>
<path d="M448.549 98.0346V127.285H444.111V98.0346H432.82V94.3888H459.84V98.0346H448.549Z" fill="white"/>
</svg>
