<svg width="895" height="236" viewBox="0 0 895 236" fill="none" xmlns="http://www.w3.org/2000/svg">
<path d="M104.898 100.353C104.898 108.311 103.7 115.14 101.315 120.832C98.9243 126.515 95.794 131.238 91.919 134.999C88.0545 138.749 83.5076 141.478 78.2732 143.186C73.0493 144.895 67.5909 145.749 61.8982 145.749H44.8357V231.395H0.81488V4.1239H61.8982C67.5909 4.1239 73.0493 4.97807 78.2732 6.6864C83.5076 8.39473 88.0545 11.1239 91.919 14.8739C95.794 18.6239 98.9243 23.3479 101.315 29.0406C103.7 34.7229 104.898 41.5406 104.898 49.4989V100.353ZM63.6065 51.2072C63.6065 47.3479 62.919 44.6812 61.544 43.2072C60.1795 41.7229 58.2524 40.9781 55.7524 40.9781H44.8357V111.957H55.7524C60.9868 111.957 63.6065 108.66 63.6065 102.061V51.2072Z" fill="#6E8387"/>
<path d="M218.874 183.27C218.874 191.009 217.447 198.119 214.603 204.603C211.754 211.093 207.833 216.613 202.833 221.166C197.833 225.707 192.03 229.285 185.437 231.895C178.838 234.52 171.671 235.832 163.937 235.832C156.197 235.832 148.968 234.52 142.249 231.895C135.541 229.285 129.687 225.707 124.687 221.166C119.687 216.613 115.76 211.093 112.916 204.603C110.067 198.119 108.645 191.009 108.645 183.27V52.228C108.645 44.5093 110.067 37.4572 112.916 31.0822C115.76 24.7072 119.687 19.1968 124.687 14.5405C129.687 9.87388 135.541 6.29055 142.249 3.79055C148.968 1.28013 156.197 0.0197144 163.937 0.0197144C171.671 0.0197144 178.838 1.28013 185.437 3.79055C192.03 6.29055 197.833 9.87388 202.833 14.5405C207.833 19.1968 211.754 24.7072 214.603 31.0822C217.447 37.4572 218.874 44.5093 218.874 52.228V183.27ZM174.166 49.4989C174.166 46.3218 173.197 43.8739 171.27 42.1655C169.338 40.4572 166.895 39.603 163.937 39.603C160.978 39.603 158.468 40.4572 156.416 42.1655C154.374 43.8739 153.353 46.3218 153.353 49.4989V185.999C153.353 189.197 154.374 191.645 156.416 193.353C158.468 195.051 160.978 195.895 163.937 195.895C166.895 195.895 169.338 195.051 171.27 193.353C173.197 191.645 174.166 189.197 174.166 185.999V49.4989Z" fill="#6E8387"/>
<path d="M354.008 231.395H316.8L302.133 113.332L286.092 231.395H249.925L216.488 4.1239H259.133L273.467 142.332L289.175 4.1239H320.571L334.883 142.332L350.592 4.1239H389.842L354.008 231.395Z" fill="#6E8387"/>
<path d="M388.124 231.395V4.1239H480.603V42.6864H431.812V96.9364H463.874V132.436H431.812V191.478H480.603V231.395H388.124Z" fill="#6E8387"/>
<path d="M560.102 231.395C558.279 231.395 556.748 230.259 555.498 227.978C554.248 225.702 553.164 222.806 552.248 219.291C551.342 215.765 550.664 211.952 550.206 207.853C549.758 203.759 549.539 199.89 549.539 196.249V150.853C549.539 147.895 548.795 145.166 547.31 142.666C545.836 140.166 543.503 138.916 540.31 138.916H530.081V231.395H486.06V4.1239H546.81C552.269 4.1239 557.607 4.97807 562.831 6.6864C568.066 8.39473 572.732 11.0718 576.831 14.7072C580.925 18.3479 584.227 22.952 586.727 28.5197C589.227 34.0927 590.477 40.6343 590.477 48.1447V93.5197C590.477 99.2177 588.883 104.509 585.706 109.395C582.524 114.285 578.086 118.327 572.394 121.52C578.086 124.702 582.633 128.738 586.039 133.624C589.456 138.515 591.164 143.806 591.164 149.499V193.52C591.164 200.801 591.732 207.395 592.873 213.311C594.008 219.228 595.378 224.916 596.977 230.374V231.395H560.102ZM548.519 51.2072C548.519 47.3479 547.883 44.6812 546.623 43.2072C545.373 41.7229 543.498 40.9781 540.998 40.9781H530.081V105.124H540.998C543.498 105.124 545.373 104.39 546.623 102.916C547.883 101.431 548.519 98.7593 548.519 94.8947V51.2072Z" fill="#6E8387"/>
<path d="M533.135 79.7552H894.62V151.839H533.135V79.7552Z" fill="#CC3F0C"/>
<path d="M579.509 131.285L575.738 121.66H560.759L556.968 131.285H552.343L565.78 98.3888H570.843L584.051 131.285H579.509ZM568.259 101.743L568.051 102.41C567.66 103.701 567.082 105.358 566.322 107.368L562.113 118.18H574.405L570.197 107.326C569.749 106.259 569.311 105.045 568.884 103.68L568.259 101.743Z" fill="white"/>
<path d="M625.622 131.285H620.309L614.601 110.389C614.226 109.087 613.684 106.743 612.976 103.368C612.57 105.175 612.226 106.691 611.934 107.91C611.653 109.118 609.538 116.91 605.58 131.285H600.247L590.559 98.3888H595.205L601.122 119.285C601.814 121.899 602.46 124.592 603.059 127.368C603.434 125.649 603.861 123.779 604.351 121.764C604.835 119.738 606.997 111.946 610.83 98.3888H615.101L620.809 118.868C621.684 122.217 622.372 125.05 622.872 127.368L623.08 126.555C623.497 124.764 623.835 123.305 624.101 122.18C624.361 121.045 626.549 113.113 630.663 98.3888H635.309L625.622 131.285Z" fill="white"/>
<path d="M668.924 131.285L665.153 121.66H650.174L646.382 131.285H641.757L655.195 98.3888H660.257L673.466 131.285H668.924ZM657.674 101.743L657.466 102.41C657.075 103.701 656.497 105.358 655.736 107.368L651.528 118.18H663.82L659.611 107.326C659.164 106.259 658.726 105.045 658.299 103.68L657.674 101.743Z" fill="white"/>
<path d="M705.578 131.285L692.432 115.41L688.14 118.68V131.285H683.682V98.3888H688.14V114.868L703.995 98.3888H709.245L695.245 112.68L711.12 131.285H705.578Z" fill="white"/>
<path d="M721.774 131.285V98.3888H746.732V102.035H726.232V112.576H745.336V116.18H726.232V127.639H747.69V131.285H721.774Z" fill="white"/>
<path d="M781.199 131.285L763.615 103.264L763.719 105.535L763.844 109.43V131.285H759.865V98.3888H765.053L782.844 126.597C782.646 123.545 782.553 121.337 782.553 119.972V98.3888H786.574V131.285H781.199Z" fill="white"/>
<path d="M800.594 131.285V98.3888H825.552V102.035H805.052V112.576H824.156V116.18H805.052V127.639H826.511V131.285H800.594Z" fill="white"/>
<path d="M867.019 114.493C867.019 117.899 866.352 120.868 865.019 123.41C863.696 125.951 861.821 127.904 859.394 129.264C856.961 130.613 854.165 131.285 850.998 131.285H838.685V98.3888H849.56C855.144 98.3888 859.446 99.7846 862.477 102.576C865.503 105.368 867.019 109.342 867.019 114.493ZM862.519 114.493C862.519 110.425 861.399 107.321 859.165 105.18C856.941 103.045 853.711 101.972 849.477 101.972H843.144V127.722H850.477C852.894 127.722 855.008 127.196 856.831 126.139C858.665 125.071 860.066 123.545 861.04 121.555C862.024 119.555 862.519 117.201 862.519 114.493Z" fill="white"/>
</svg>
